<?xml version="1.0" standalone="no"?>
<!DOCTYPE svg PUBLIC "-//W3C//DTD SVG 20010904//EN"
 "http://www.w3.org/TR/2001/REC-SVG-20010904/DTD/svg10.dtd">
<svg version="1.0" xmlns="http://www.w3.org/2000/svg"
 width="225.000000pt" height="225.000000pt" viewBox="0 0 225.000000 225.000000"
 preserveAspectRatio="xMidYMid meet">
<metadata>
Created by potrace 1.10, written by Peter Selinger 2001-2011
</metadata>
<g transform="translate(0.000000,225.000000) scale(0.100000,-0.100000)"
fill="#bf9000" stroke="none">
<path d="M0 1125 l0 -1125 1125 0 1125 0 0 1125 0 1125 -1125 0 -1125 0 0
-1125z m940 710 c0 -2 -36 -24 -80 -49 l-79 -46 -166 0 c-178 0 -167 -4 -167
55 0 14 0 29 1 35 1 14 491 19 491 5z m330 -62 c74 -42 147 -89 163 -104 l27
-27 0 -151 c0 -86 -5 -160 -11 -174 -7 -15 -65 -56 -157 -111 -119 -71 -153
-87 -177 -83 -49 8 -305 164 -316 193 -5 14 -9 92 -9 174 0 126 3 151 18 169
17 22 298 191 317 191 5 0 70 -35 145 -77z m530 17 l0 -50 -164 0 -164 0 -71
41 c-39 22 -73 45 -77 50 -3 5 92 9 235 9 l241 0 0 -50z m-1090 -176 l0 -44
-129 0 c-72 0 -132 3 -134 8 -2 4 -2 24 0 44 l5 37 117 3 c64 2 122 1 129 -1
7 -2 12 -20 12 -47z m1088 2 l3 -46 -130 0 -131 0 0 44 c0 24 5 46 10 48 6 2
63 2 128 2 l117 -1 3 -47z m-1088 -176 l0 -50 -129 0 c-82 0 -131 4 -133 11
-2 5 -2 28 0 50 l4 39 129 0 129 0 0 -50z m1090 0 l0 -50 -130 0 -130 0 0 50
0 50 130 0 130 0 0 -50z m-1084 -152 c3 -12 20 -34 37 -50 l31 -28 -166 0
c-108 0 -168 4 -170 11 -2 5 -2 28 0 50 l4 39 128 0 c123 0 129 -1 136 -22z
m1084 -28 l0 -50 -172 0 -173 0 36 33 c20 17 39 40 43 50 5 15 20 17 136 17
l130 0 0 -50z m-794 -172 c41 -23 74 -46 74 -50 0 -4 -141 -8 -314 -8 -242 0
-315 3 -318 13 -3 6 -3 29 0 50 l4 37 240 0 240 0 74 -42z m794 -8 l0 -50
-316 0 c-208 0 -315 3 -312 10 2 6 32 28 68 50 l65 39 248 1 247 0 0 -50z
m-718 -159 c2 -22 2 -45 0 -50 -3 -8 -101 -11 -302 -11 -332 0 -310 -5 -323
68 l-6 32 313 0 314 0 4 -39z m714 17 c-4 -13 -9 -35 -12 -50 l-6 -28 -304 0
-304 0 0 50 0 50 316 0 316 0 -6 -22z m-716 -208 l0 -50 -254 0 -253 0 -27 40
c-14 22 -26 44 -26 50 0 6 96 10 280 10 l280 0 0 -50z m650 40 c0 -6 -12 -28
-26 -50 l-27 -40 -253 0 -254 0 0 50 0 50 280 0 c184 0 280 -4 280 -10z m-657
-170 c5 -5 10 -62 8 -87 -1 -10 -40 -13 -160 -13 -147 0 -160 2 -187 22 -49
36 -84 71 -79 78 5 7 411 8 418 0z m505 0 c30 0 22 -11 -40 -60 l-50 -40 -159
0 -159 0 0 50 0 49 58 4 c31 2 118 3 192 1 74 -2 145 -3 158 -4z m-497 -182
c2 -20 -3 -83 -6 -86 -5 -5 -175 82 -175 90 0 14 180 9 181 -4z m269 4 c0 -8
-170 -96 -175 -90 -6 7 -12 74 -8 86 5 13 183 18 183 4z"/>
</g>
</svg>
